<?xml version="1.0" encoding="utf-8"?>
<!-- Generator: Adobe Illustrator 27.4.0, SVG Export Plug-In . SVG Version: 6.00 Build 0)  -->
<svg version="1.1" id="Layer_1" xmlns="http://www.w3.org/2000/svg" xmlns:xlink="http://www.w3.org/1999/xlink" x="0px" y="0px"
	 viewBox="0 0 1920 1080" style="enable-background:new 0 0 1920 1080;" xml:space="preserve">
<style type="text/css">
	.st0{fill:none;stroke:#000000;stroke-width:4;stroke-linecap:round;stroke-miterlimit:10;}
</style>
<g>
	<g>
		<line class="st0" x1="755.57" y1="407.21" x2="700.47" y2="540.25"/>
		<line class="st0" x1="645.36" y1="407.21" x2="700.47" y2="540.25"/>
		<path class="st0" d="M752.86,413.75c-33.55,13.9-71.24,13.9-104.79,0"/>
		<path class="st0" d="M740.43,443.75c-25.59,10.6-54.34,10.6-79.93,0"/>
		<path class="st0" d="M728.01,473.75c-17.64,7.31-37.45,7.31-55.09,0"/>
		<path class="st0" d="M715.58,503.75c-9.68,4.01-20.55,4.01-30.23,0"/>
		<line class="st0" x1="645.36" y1="407.21" x2="700.47" y2="540.25"/>
		<line class="st0" x1="567.43" y1="485.14" x2="700.47" y2="540.25"/>
		<path class="st0" d="M648.07,413.75c-13.9,33.55-40.55,60.2-74.1,74.1"/>
		<path class="st0" d="M660.49,443.75c-10.6,25.59-30.93,45.92-56.52,56.52"/>
		<path class="st0" d="M672.92,473.75c-7.31,17.64-21.32,31.65-38.95,38.95"/>
		<path class="st0" d="M685.35,503.75c-4.01,9.68-11.7,17.37-21.38,21.38"/>
		<line class="st0" x1="567.43" y1="485.14" x2="700.47" y2="540.25"/>
		<line class="st0" x1="567.43" y1="595.35" x2="700.47" y2="540.25"/>
		<path class="st0" d="M573.97,487.85c13.9,33.55,13.9,71.24,0,104.79"/>
		<path class="st0" d="M603.97,500.28c10.6,25.59,10.6,54.34,0,79.93"/>
		<path class="st0" d="M633.97,512.7c7.31,17.64,7.31,37.45,0,55.09"/>
		<path class="st0" d="M663.97,525.13c4.01,9.68,4.01,20.55,0,30.23"/>
		<line class="st0" x1="567.43" y1="595.35" x2="700.47" y2="540.25"/>
		<line class="st0" x1="645.36" y1="673.29" x2="700.47" y2="540.25"/>
		<path class="st0" d="M573.97,592.65c33.55,13.9,60.2,40.55,74.1,74.1"/>
		<path class="st0" d="M603.97,580.22c25.59,10.6,45.92,30.93,56.52,56.52"/>
		<path class="st0" d="M633.97,567.79c17.64,7.31,31.65,21.32,38.95,38.95"/>
		<path class="st0" d="M663.97,555.37c9.68,4.01,17.37,11.7,21.38,21.38"/>
		<line class="st0" x1="645.36" y1="673.29" x2="700.47" y2="540.25"/>
		<line class="st0" x1="755.57" y1="673.29" x2="700.47" y2="540.25"/>
		<path class="st0" d="M648.07,666.75c33.55-13.9,71.24-13.9,104.79,0"/>
		<path class="st0" d="M660.5,636.75c25.59-10.6,54.34-10.6,79.93,0"/>
		<path class="st0" d="M672.92,606.75c17.64-7.31,37.45-7.31,55.09,0"/>
		<path class="st0" d="M685.35,576.75c9.68-4.01,20.55-4.01,30.23,0"/>
		<line class="st0" x1="755.57" y1="673.29" x2="700.47" y2="540.25"/>
		<line class="st0" x1="833.5" y1="595.35" x2="700.47" y2="540.25"/>
		<path class="st0" d="M752.87,666.74c13.9-33.55,40.55-60.2,74.1-74.1"/>
		<path class="st0" d="M740.44,636.74c10.6-25.59,30.93-45.92,56.52-56.52"/>
		<path class="st0" d="M728.01,606.75c7.31-17.64,21.32-31.65,38.95-38.95"/>
		<path class="st0" d="M715.59,576.74c4.01-9.68,11.7-17.37,21.38-21.38"/>
		<line class="st0" x1="833.5" y1="595.35" x2="700.47" y2="540.25"/>
		<line class="st0" x1="833.5" y1="485.14" x2="700.47" y2="540.25"/>
		<path class="st0" d="M826.97,592.64c-13.9-33.55-13.9-71.24,0-104.79"/>
		<path class="st0" d="M796.97,580.21c-10.6-25.59-10.6-54.34,0-79.93"/>
		<path class="st0" d="M766.97,567.79c-7.31-17.64-7.31-37.45,0-55.09"/>
		<path class="st0" d="M736.97,555.36c-4.01-9.68-4.01-20.55,0-30.23"/>
		<line class="st0" x1="833.5" y1="485.14" x2="700.47" y2="540.25"/>
		<line class="st0" x1="755.57" y1="407.21" x2="700.47" y2="540.25"/>
		<path class="st0" d="M826.96,487.85c-33.55-13.9-60.2-40.55-74.1-74.1"/>
		<path class="st0" d="M796.96,500.27c-25.59-10.6-45.92-30.93-56.52-56.52"/>
		<path class="st0" d="M766.97,512.7c-17.64-7.31-31.65-21.32-38.95-38.95"/>
		<path class="st0" d="M736.96,525.13c-9.68-4.01-17.37-11.7-21.38-21.38"/>
	</g>
	<g>
		<path d="M837.37,494.38c2.36-1.99,4.87-2.98,7.53-2.98c5.61,0,9.26,3.38,10.96,10.14c0.29,1.27,0.81,5.01,1.55,11.21l0.33,20.76
			c0.52,0.72,1.07,1.07,1.66,1.07c0.59-0.79,0.96-2.19,1.11-4.17l0.22-3.58c0.89-2.86,2.29-7.12,4.21-12.76
			c1.84-4.93,4.98-7.83,9.41-8.71c3.17-0.08,5.53,1.43,7.08,4.53c1.11,2.23,2.03,6.04,2.77,11.45c0.59,4.29,0.81,6.96,0.66,7.99
			c-0.52,1.75-0.44,3.66,0.22,5.73c1.03,0.24,1.59-0.08,1.66-0.95c0.96-17.42,3.61-30.06,7.97-37.94c1.33-2.46,2.8-4.09,4.43-4.89
			c1.03-0.72,2.58-1.19,4.65-1.43c3.61-0.4,7.01,1.08,10.18,4.42c2.43,2.55,3.65,6.13,3.65,10.75c0,1.75-0.59,5.85-1.77,12.3
			c-1.26,7.64-3.21,19.07-5.87,34.28c-2.43,13.46-6.31,23.41-11.62,29.86c-1.92,1.67-4.47,2.51-7.64,2.51
			c-3.69,0-7.08-0.96-10.18-2.87c-2.51-2.23-4.17-5.23-4.98-8.98c-0.66-2.95-1.03-6.62-1.11-11.01c-0.15-5.27-0.41-8.86-0.77-10.77
			c-0.74-0.72-1.37-1.04-1.88-0.96c-0.22,1.19-0.7,5.96-1.44,14.31c-0.59,6.28-1.44,10.94-2.55,13.96
			c-1.77,4.61-5.2,7.12-10.29,7.52c-8.19,0.64-14.46-3.18-18.81-11.45c-2.66-3.98-4.74-10-6.25-18.07
			c-1.51-8.07-2.23-16.92-2.16-26.54C830.43,509.85,832.79,498.28,837.37,494.38z"/>
		<path d="M973.72,526.35c0.29,1.19,0.41,2.43,0.33,3.7c0,4.22-1.59,7.75-4.76,10.62c-2.88,2.71-5.98,3.86-9.3,3.46
			c-0.59-0.24-1.7-0.28-3.32-0.12c0.15,0.95-0.11,3.5-0.77,7.63c0,1.91,0.77,3.34,2.32,4.29c3.02-0.87,5.5-0.87,7.41,0
			c3.02,1.27,4.68,3.42,4.98,6.44c0.37,3.42-0.55,6.9-2.77,10.44c-2.21,3.54-5.28,6.5-9.19,8.89c-3.47,2.15-7.56,3.22-12.28,3.22
			c-4.13,0-7.86-0.83-11.18-2.5c-1.4-0.72-3.51-2.94-6.31-6.68c-3.03-5.41-4.58-16.82-4.65-34.24c-0.07-10.02,0.7-21.47,2.32-34.36
			c0.96-7.47,2.95-12.33,5.98-14.55l18.48-2.03c3.17-0.72,6.2-1.07,9.08-1.07c5.75,0,9.15,1.55,10.18,4.65
			c0.44,1.27,0.66,2.7,0.66,4.29c0,3.42-1.18,6.2-3.54,8.35c-2.36,2.15-5.64,3.22-9.85,3.22c-1.03,0-1.85,0-2.44,0
			c-0.52,1.18-0.81,3.08-0.89,5.67c-0.15,3.31-0.26,5.2-0.33,5.68c0.22,1.1,1,1.81,2.32,2.13c2.14-1.83,4.83-2.74,8.08-2.74
			C968.08,520.74,971.21,522.61,973.72,526.35z"/>
		<path d="M1040.68,555.58c-0.66,8.67-3.73,15.27-9.19,19.8c-2.88,2.39-8.08,5.05-15.61,7.99c-3.32,0.64-6.75,0.95-10.29,0.95
			c-10.4,0-17.89-2.34-22.47-7.04c-1.11-1.51-1.66-13.56-1.66-36.15c0-26.8,0.59-41.51,1.77-44.14c5.16-4.77,12.95-7.16,23.35-7.16
			c3.03,0,5.31,0.16,6.86,0.48c8.12,1.67,14.17,4.87,18.15,9.6c3.98,4.73,6.09,10.76,6.31,18.07c-0.59,4.29-2.21,7.79-4.87,10.5
			c-1.18,1.19-3.69,2.9-7.53,5.13c4.79,0.95,8.61,3.58,11.46,7.87C1039.81,545.8,1041.05,550.49,1040.68,555.58z M1010.46,554.86
			v0.12c0.52-1.83,0.77-3.38,0.77-4.65c0-3.66-1.14-5.49-3.43-5.49c-1.26,0-2.47,0.52-3.65,1.55c0.07,1.03-0.04,2.94-0.33,5.73
			c-0.44,3.34-0.66,5.37-0.66,6.08c0,0.48,0.07,1.71,0.22,3.7c2.21-0.32,3.91-1.23,5.09-2.74
			C1008.99,558.44,1009.65,557.01,1010.46,554.86z M1012.57,514.42l-0.11,0.12c-0.37-2.07-1.99-3.1-4.87-3.1
			c-0.96,0-1.51,0.08-1.66,0.24c-0.52,0.08-1,0.6-1.44,1.55c0.52,4.69,0.55,9.94,0.11,15.75l4.87-3.34
			c2.21-4.13,3.32-7.28,3.32-9.42C1012.79,515.81,1012.71,515.22,1012.57,514.42z"/>
		<path d="M1105.64,553.67v0.12c0,0.4,0,0.96,0,1.67c0.07,0.8,0.11,1.35,0.11,1.67c0,11.61-4.09,19.49-12.29,23.62
			c-4.58,2.31-9.48,3.46-14.72,3.46c-7.01,0-12.73-2.11-17.15-6.32c-9.3-8.83-13.91-21.23-13.83-37.22c0-7,0.77-14.95,2.32-23.86
			c1.18-6.84,3.72-13.16,7.64-18.97c1.92-2.86,4.7-5.19,8.36-6.98c3.65-1.79,7.58-2.68,11.79-2.68c4.87,0,9.42,1.37,13.67,4.12
			c4.24,2.74,7.54,6.42,9.91,11.03c1.4,2.78,2.14,5.89,2.21,9.3c0.07,3.26-0.66,6.24-2.21,8.95c-2.07,3.66-4.72,5.69-7.97,6.08
			c-5.17,0.56-9.74-1.95-13.72-7.51c-0.07-0.24-0.22-1.19-0.44-2.86c-0.15-1.27-0.7-1.87-1.66-1.79l-1.11,2.15
			c-0.74,16.86-1.11,25.49-1.11,25.89c0,2.31,0.07,4.57,0.22,6.8c0.15,2.23,1.03,3.7,2.66,4.41c1.7-0.08,4.63-2.11,8.8-6.08
			c4.17-3.98,7.03-5.96,8.58-5.96c1.18,0,2.4,0.28,3.65,0.83C1103.54,544.88,1105.64,548.26,1105.64,553.67z"/>
		<path d="M1174.59,563.33l0.11,0.12c-1.92,6.44-5.29,11.53-10.13,15.27c-4.83,3.74-10.42,5.61-16.77,5.61
			c-11.73,0-20.84-4.77-27.34-14.32c-5.53-8.11-8.3-17.97-8.3-29.58c0-5.33,0.44-10.26,1.33-14.79
			c4.06-20.76,12.65-32.45,25.79-35.07c1.18-0.24,2.43-0.36,3.76-0.36c5.9,0,11.64,2.11,17.21,6.32c5.57,4.22,9.31,9.35,11.23,15.39
			c4.13,13.12,6.2,23.34,6.2,30.66c0,6.2-1.07,13.12-3.21,20.76H1174.59z M1147.14,554.74v-0.12c2.14-0.4,3.21-4.81,3.21-13.24
			c0-4.85-0.41-9.32-1.22-13.42c-0.81-4.09-1.7-6.22-2.66-6.38c-1.62-0.48-3.1,1.43-4.43,5.73s-1.99,9.03-1.99,14.2
			C1140.06,551.12,1142.42,555.54,1147.14,554.74z"/>
		<path d="M1240,531.96c0,10.98-2.21,20.88-6.64,29.7c-5.39,10.9-13.39,17.97-24.02,21.23c-5.75,0.4-10.94-0.34-15.55-2.21
			c-4.61-1.87-7.03-4.31-7.25-7.34c-1.33-21.23-1.99-41.63-1.99-61.2c0-7.24,0.15-12.41,0.44-15.51c1.84-4.29,7.78-6.44,17.82-6.44
			c5.68,0,10.74,0.72,15.16,2.15c4.65,2.31,8.85,6.12,12.62,11.45C1236.86,512.71,1240,522.1,1240,531.96z M1212.33,521.22
			c-1.03-1.35-2.03-2.03-2.99-2.03c-0.44,0-1,0.16-1.66,0.48c-0.66,0.32-1.03,0.48-1.11,0.48c0.81,5.65,1.33,15.03,1.55,28.15
			c2.14-1.59,3.93-3.94,5.37-7.04c1.44-3.1,2.16-6.24,2.16-9.42C1215.65,527.7,1214.54,524.16,1212.33,521.22z"/>
		<path d="M1296.55,526.35c0.29,1.19,0.4,2.43,0.33,3.7c0,4.22-1.59,7.75-4.76,10.62c-2.88,2.71-5.98,3.86-9.3,3.46
			c-0.59-0.24-1.7-0.28-3.32-0.12c0.15,0.95-0.11,3.5-0.77,7.63c0,1.91,0.77,3.34,2.32,4.29c3.02-0.87,5.5-0.87,7.42,0
			c3.02,1.27,4.68,3.42,4.98,6.44c0.37,3.42-0.55,6.9-2.77,10.44c-2.21,3.54-5.28,6.5-9.19,8.89c-3.47,2.15-7.56,3.22-12.29,3.22
			c-4.13,0-7.86-0.83-11.18-2.5c-1.4-0.72-3.5-2.94-6.31-6.68c-3.03-5.41-4.58-16.82-4.65-34.24c-0.07-10.02,0.7-21.47,2.32-34.36
			c0.96-7.47,2.95-12.33,5.98-14.55l18.48-2.03c3.17-0.72,6.2-1.07,9.08-1.07c5.76,0,9.15,1.55,10.18,4.65
			c0.44,1.27,0.66,2.7,0.66,4.29c0,3.42-1.18,6.2-3.54,8.35c-2.36,2.15-5.64,3.22-9.85,3.22c-1.03,0-1.85,0-2.43,0
			c-0.52,1.18-0.81,3.08-0.89,5.67c-0.15,3.31-0.26,5.2-0.33,5.68c0.22,1.1,1,1.81,2.32,2.13c2.14-1.83,4.83-2.74,8.08-2.74
			C1290.91,520.74,1294.04,522.61,1296.55,526.35z"/>
	</g>
</g>
</svg>
